<svg xmlns="http://www.w3.org/2000/svg" xmlns:svg="http://www.w3.org/2000/svg" xmlns:xlink="http://www.w3.org/1999/xlink" id="svg11252" width="76" height="27" version="1.1"><defs id="defs11254"><radialGradient id="radialGradient68155-2-3" cx="49" cy="488" r="38" fx="49" fy="488" gradientTransform="matrix(1,0,0,0.3486842,0,317.8421)" gradientUnits="userSpaceOnUse" xlink:href="#linearGradient39563-4-2"/><linearGradient id="linearGradient39563-4-2"><stop id="stop39565-1-4" offset="0" stop-color="#fff" stop-opacity="1"/><stop id="stop39567-7-9" offset="1" stop-color="#fff" stop-opacity="0"/></linearGradient><radialGradient id="radialGradient68157-0-8" cx="50.5" cy="487.5" r="10.5" fx="50.5" fy="487.5" gradientUnits="userSpaceOnUse" xlink:href="#linearGradient39573-6-1"/><linearGradient id="linearGradient39573-6-1"><stop id="stop39575-5-6" offset="0" stop-color="#fff" stop-opacity="1"/><stop id="stop39577-1-2" offset="1" stop-color="#fff" stop-opacity="0"/></linearGradient></defs><g id="layer1" transform="translate(-337,-518.86218)"><g id="g99967" display="inline" transform="translate(326,44.862171)"><rect id="rect99969" width="76" height="2" x="11" y="487" fill="url(#radialGradient68155-2-3)" fill-opacity="1" stroke="none" stroke-width="1" color="#000" display="inline" enable-background="accumulate" opacity=".494" overflow="visible" rx="0" ry="0" visibility="visible" style="marker:none"/><path id="path99971" fill="url(#radialGradient68157-0-8)" fill-opacity="1" fill-rule="nonzero" stroke="none" stroke-width="1" d="M 61,487.5 C 61,493.29899 56.29899,498 50.5,498 44.70101,498 40,493.29899 40,487.5 40,481.70101 44.70101,477 50.5,477 c 5.79899,0 10.5,4.70101 10.5,10.5 z" color="#000" display="inline" enable-background="accumulate" opacity=".431" overflow="visible" transform="matrix(1.2857143,0,0,1.2857143,-14.428572,-139.28571)" visibility="visible" style="marker:none"/><path id="path99973" fill="#fff" fill-opacity="1" fill-rule="nonzero" stroke="none" stroke-width="1" d="M 61,487.5 C 61,493.29899 56.29899,498 50.5,498 44.70101,498 40,493.29899 40,487.5 40,481.70101 44.70101,477 50.5,477 c 5.79899,0 10.5,4.70101 10.5,10.5 z" color="#000" display="inline" enable-background="accumulate" overflow="visible" transform="matrix(0.43589747,0,0,0.43589747,28.487179,275)" visibility="visible" style="marker:none"/></g></g></svg>