<svg xmlns="http://www.w3.org/2000/svg" xmlns:svg="http://www.w3.org/2000/svg" id="svg11300" width="24" height="24" display="inline" enable-background="new" version="1.0"><metadata id="metadata4"/><g id="layer1" display="inline" transform="translate(0,-276)"><path id="rect3005" fill="#fff" fill-opacity="1" stroke="none" d="m 0,0 0,22 c 0,1.108 0.892,2 2,2 l 20,0 c 1.108,0 2,-0.892 2,-2 l 0,-22 -1,0 0,21 c 0,1.108 -0.892,2 -2,2 L 3,23 C 1.892,23 1,22.108 1,21 L 1,0 z" opacity=".3" transform="translate(0,276)"/><path id="rect3003" fill="#000" fill-opacity="1" stroke="none" d="m 1,0 0,21 c 0,1.108 0.892,2 2,2 l 18,0 c 1.108,0 2,-0.892 2,-2 L 23,0 z" opacity=".85" transform="translate(0,276)"/></g></svg>