<svg xmlns="http://www.w3.org/2000/svg" xmlns:svg="http://www.w3.org/2000/svg" id="svg11300" width="24" height="24" display="inline" enable-background="new" version="1.0"><metadata id="metadata4"/><g id="layer1" display="inline" transform="translate(0,-276)"><path id="rect3005" fill="#fff" fill-opacity="1" stroke="none" d="m 0,300 0,-22 c 0,-1.108 0.892,-2 2,-2 l 20,0 c 1.108,0 2,0.892 2,2 l 0,22 -1,0 0,-21 c 0,-1.108 -0.892,-2 -2,-2 l -18,0 c -1.108,0 -2,0.892 -2,2 l 0,21 z" opacity=".3"/><path id="rect3003" fill="#000" fill-opacity="1" stroke="none" d="m 1,300 0,-21 c 0,-1.108 0.892,-2 2,-2 l 18,0 c 1.108,0 2,0.892 2,2 l 0,21 z" opacity=".85"/></g></svg>