<svg xmlns="http://www.w3.org/2000/svg" xmlns:svg="http://www.w3.org/2000/svg" id="svg11300" width="16" height="16" display="inline" enable-background="new" version="1.0"><metadata id="metadata4"/><g id="layer1" display="inline" transform="translate(0,-284)"><path id="path4035" fill="#fff" fill-opacity="1" stroke="none" d="m 6,288 0,-2 -4,0 0,4 2,0 0,-2 z m 4,0 0,-2 4,0 0,4 -2,0 0,-2 z m 0,8 0,2 4,0 0,-4 -2,0 0,2 z m -6,-2 -2,0 0,4 4,0 0,-2 -2,0 z" opacity=".64"/><path id="path4175" fill="#000" fill-opacity="1" stroke="none" d="m 7,285 0,4 -2,0 0,2 -4,0 0,-6 6,0 z m -1,1 -4,0 0,4 2,0 0,-2 2,0 0,-2 z m 1,13 0,-4 -2,0 0,-2 -4,0 0,6 6,0 z m -1,-1 -4,0 0,-4 2,0 0,2 2,0 0,2 z m 3,1 0,-4 2,0 0,-2 4,0 0,6 -6,0 z m 1,-1 4,0 0,-4 -2,0 0,2 -2,0 0,2 z m -1,-13 0,4 2,0 0,2 4,0 0,-6 -6,0 z m 1,1 4,0 0,4 -2,0 0,-2 -2,0 0,-2 z" opacity=".4"/></g></svg>