<svg xmlns="http://www.w3.org/2000/svg" xmlns:svg="http://www.w3.org/2000/svg" id="svg11300" width="16" height="16" display="inline" enable-background="new" version="1.0"><metadata id="metadata4"/><g id="layer1" display="inline" transform="translate(0,-284)"><path id="path4100" fill="#000" fill-opacity="1" stroke="none" d="M 8 2 L 8 6 L 10 6 L 10 8 L 14 8 L 14 2 L 8 2 z M 9 3 L 13 3 L 13 7 L 11 7 L 11 5 L 9 5 L 9 3 z" opacity=".4" transform="translate(0,284)"/><path id="path4035" fill="#fff" fill-opacity="1" stroke="none" d="m 7,289 0,-2 -4,0 0,4 2,0 0,-2 z m 2,0 0,-2 4,0 0,4 -2,0 0,-2 z m 0,6 0,2 4,0 0,-4 -2,0 0,2 z m -4,-2 -2,0 0,4 4,0 0,-2 -2,0 z" opacity=".64"/><path id="path4171" fill="#000" fill-opacity="1" stroke="none" d="m 8,298 0,-4 2,0 0,-2 4,0 0,6 -6,0 z m 1,-1 4,0 0,-4 -2,0 0,2 -2,0 0,2 z" opacity=".4"/><path id="path4173" fill="#000" fill-opacity="1" stroke="none" d="m 8,298 0,-4 -2,0 0,-2 -4,0 0,6 6,0 z m -1,-1 -4,0 0,-4 2,0 0,2 2,0 0,2 z" opacity=".4"/><path id="path4175" fill="#000" fill-opacity="1" stroke="none" d="m 8,286 0,4 -2,0 0,2 -4,0 0,-6 6,0 z m -1,1 -4,0 0,4 2,0 0,-2 2,0 0,-2 z" opacity=".4"/></g></svg>