<svg xmlns="http://www.w3.org/2000/svg" xmlns:svg="http://www.w3.org/2000/svg" id="svg11300" width="24" height="24" display="inline" enable-background="new" version="1.0"><metadata id="metadata4"/><g id="layer1" display="inline" transform="translate(0,-276)"><path id="rect3047" fill="#fff" fill-opacity="1" d="M 6 16 L 6 18 L 7 18 L 7 16 L 6 16 z M 17 16 L 17 18 L 18 18 L 18 16 L 17 16 z M 6 19 L 6 21 L 7 21 L 7 19 L 6 19 z M 17 19 L 17 21 L 18 21 L 18 19 L 17 19 z" transform="translate(0,276)"/><path id="rect3263" fill="#fff" fill-opacity="1" d="m 2,279 9,0 0,5 -9,0 z m 0,6 9,0 0,5 -9,0 z m 11,-6 9,0 0,5 -9,0 z m 0,6 9,0 0,5 -9,0 z" opacity=".5"/></g></svg>