<svg xmlns="http://www.w3.org/2000/svg" xmlns:svg="http://www.w3.org/2000/svg" id="svg11300" width="24" height="24" display="inline" enable-background="new" version="1.0"><metadata id="metadata4"/><g id="layer1" display="inline" transform="translate(0,-276)"><path id="rect3023" fill="#fff" fill-opacity="1" stroke="none" d="M 3,1 1,1 1,23 c 0,0 0.892,0 2,0 l 20,0 c 0,0 0,-0.892 0,-2 L 23,3 c 0,-1.108 0,-2 0,-2 z m 1,1 16,0 c 1.108,0 2,0.892 2,2 l 0,16 c 0,1.108 -0.892,2 -2,2 L 4,22 C 2.892,22 2,21.108 2,20 L 2,4 C 2,2.892 2.892,2 4,2 z" opacity=".1" transform="translate(0,276)"/><rect id="rect3021" width="20" height="20" x="2" y="2" fill="#fff" fill-opacity="1" stroke="#000" stroke-opacity="1" opacity="1" rx="0" ry="2" transform="translate(0,276)"/></g></svg>