<svg xmlns="http://www.w3.org/2000/svg" xmlns:svg="http://www.w3.org/2000/svg" id="svg11300" width="24" height="24" display="inline" enable-background="new" version="1.0"><metadata id="metadata4"/><g id="layer1" display="inline" transform="translate(0,-276)"><path id="rect3005" fill="#fff" fill-opacity="1" stroke="none" d="M 2 1 C 0.892 1 0 1.892 0 3 L 0 21 C 0 22.108 0.892 23 2 23 L 24 23 L 24 22 L 3 22 C 1.892 22 1 21.108 1 20 L 1 4 C 1 2.892 1.892 2 3 2 L 24 2 L 24 1 L 2 1 z" opacity=".3" transform="translate(0,276)"/><path id="rect3003" fill="#000" fill-opacity="1" stroke="none" d="M 3,2 C 1.892,2 1,2.892 1,4 l 0,16 c 0,1.108 0.892,2 2,2 l 21,0 0,-20 z" opacity=".85" transform="translate(0,276)"/></g></svg>