<svg xmlns="http://www.w3.org/2000/svg" xmlns:svg="http://www.w3.org/2000/svg" xmlns:xlink="http://www.w3.org/1999/xlink" id="svg11300" width="24" height="24" display="inline" enable-background="new" version="1.0"><defs id="defs3"><linearGradient id="linearGradient3991"><stop id="stop3993" offset="0" stop-color="#000" stop-opacity="1"/><stop id="stop3995" offset="1" stop-color="#373737" stop-opacity="0"/></linearGradient><linearGradient id="linearGradient3939" x1="24" x2="24" y1="2" y2="22" gradientTransform="matrix(-1,0,0,1,23,276)" gradientUnits="userSpaceOnUse" xlink:href="#linearGradient3991"/><linearGradient id="linearGradient3942" x1="24" x2="24" y1="2" y2="22" gradientTransform="matrix(-1,0,0,-1,23,300)" gradientUnits="userSpaceOnUse" xlink:href="#linearGradient3991"/></defs><metadata id="metadata4"/><g id="layer1" display="inline" transform="translate(0,-276)"><path id="rect3005" fill="#fff" fill-opacity="1" stroke="none" d="m 22,277 c 1.108,0 2,0.892 2,2 l 0,18 c 0,1.108 -0.892,2 -2,2 l -22,0 0,-1 21,0 c 1.108,0 2,-0.892 2,-2 l 0,-16 c 0,-1.108 -0.892,-2 -2,-2 l -21,0 0,-1 22,0 z" opacity=".3"/><path id="rect3003" fill="#000" fill-opacity="1" stroke="none" d="m 21,278 c 1.108,0 2,0.892 2,2 l 0,16 c 0,1.108 -0.892,2 -2,2 l -21,0 0,-20 z" opacity=".88"/><path id="path3999" fill="url(#linearGradient3942)" fill-opacity="1" stroke="none" d="m 21,278 c 1.108,0 2,0.892 2,2 l 0,16 c 0,1.108 -0.892,2 -2,2 l -21,0 0,-1 20,0 c 1.108,0 2,-0.892 2,-2 l 0,-14 c 0,-1.108 -0.892,-2 -2,-2 l -20,0 0,-1 z"/><path id="rect3986" fill="url(#linearGradient3939)" fill-opacity="1" stroke="none" d="m 21,278 c 1.108,0 2,0.892 2,2 l 0,16 c 0,1.108 -0.892,2 -2,2 l -21,0 0,-1 20,0 c 1.108,0 2,-0.892 2,-2 l 0,-14 c 0,-1.108 -0.892,-2 -2,-2 l -20,0 0,-1 z"/></g></svg>