<svg xmlns="http://www.w3.org/2000/svg" xmlns:svg="http://www.w3.org/2000/svg" xmlns:xlink="http://www.w3.org/1999/xlink" id="svg11300" width="24" height="24" display="inline" enable-background="new" version="1.0"><defs id="defs3"><linearGradient id="linearGradient3991"><stop id="stop3993" offset="0" stop-color="#000" stop-opacity="1"/><stop id="stop3995" offset="1" stop-color="#373737" stop-opacity="0"/></linearGradient><linearGradient id="linearGradient3939" x1="24" x2="24" y1="2" y2="22" gradientTransform="translate(1,0)" gradientUnits="userSpaceOnUse" xlink:href="#linearGradient3991"/><linearGradient id="linearGradient3942" x1="24" x2="24" y1="2" y2="22" gradientTransform="matrix(1,0,0,-1,1,24)" gradientUnits="userSpaceOnUse" xlink:href="#linearGradient3991"/></defs><metadata id="metadata4"/><g id="layer1" display="inline" transform="translate(0,-276)"><path id="rect3005" fill="#fff" fill-opacity="1" stroke="none" d="M 2 1 C 0.892 1 0 1.892 0 3 L 0 21 C 0 22.108 0.892 23 2 23 L 24 23 L 24 22 L 3 22 C 1.892 22 1 21.108 1 20 L 1 4 C 1 2.892 1.892 2 3 2 L 24 2 L 24 1 L 2 1 z" opacity=".3" transform="translate(0,276)"/><path id="rect3003" fill="#000" fill-opacity="1" stroke="none" d="M 3,2 C 1.892,2 1,2.892 1,4 l 0,16 c 0,1.108 0.892,2 2,2 l 21,0 0,-20 z" opacity=".88" transform="translate(0,276)"/><path id="path3999" fill="url(#linearGradient3942)" fill-opacity="1" stroke="none" d="M 3,2 C 1.892,2 1,2.892 1,4 l 0,16 c 0,1.108 0.892,2 2,2 l 21,0 0,-1 -20,0 C 2.892,21 2,20.108 2,19 L 2,5 C 2,3.892 2.892,3 4,3 l 20,0 0,-1 z" opacity="1" transform="translate(0,276)"/><path id="rect3986" fill="url(#linearGradient3939)" fill-opacity="1" stroke="none" d="M 3,2 C 1.892,2 1,2.892 1,4 l 0,16 c 0,1.108 0.892,2 2,2 l 21,0 0,-1 -20,0 C 2.892,21 2,20.108 2,19 L 2,5 C 2,3.892 2.892,3 4,3 l 20,0 0,-1 z" opacity="1" transform="translate(0,276)"/></g></svg>